<svg width="0" height="0" class="hidden">
  <symbol xmlns="http://www.w3.org/2000/svg" viewBox="0 0 890.5 890.5" id="wallet">
    <path d="M208.1 180.6l355-96.9-18.8-38C532 21 502 10.8 477.3 23.1L159.5 180.6h48.6zm465.2-94.1c-4.4 0-8.8.6-13.2 1.8l-83.4 22.8L322 180.6h415.1l-15.6-57.2c-6-22.3-26.2-36.9-48.2-36.9zm115.9 129.1H50.1c-15.8 0-29.9 7.3-39.1 18.8-4.2 5.3-7.4 11.4-9.2 18.1-1.1 4.2-1.8 8.6-1.8 13.1v557.1c0 27.6 22.4 50 50 50h739.1c27.6 0 50-22.4 50-50V683.2H542.4c-46.9 0-85-38.1-85-85V487c0-23 9.2-43.9 24.1-59.2 13.2-13.6 30.9-22.8 50.7-25.1 3.3-.4 6.7-.6 10.1-.6h296.8V265.6c.1-27.6-22.3-50-49.9-50z"></path>
    <path d="M874.2 449.9c-5-4.6-10.9-8.1-17.5-10.4-5.1-1.7-10.5-2.7-16.2-2.7H542.4c-27.6 0-50 22.4-50 50v111.3c0 27.6 22.4 50 50 50h298.1c5.7 0 11.1-1 16.2-2.7 6.6-2.2 12.5-5.8 17.5-10.4 10-9.1 16.3-22.3 16.3-36.9V486.8c0-14.6-6.3-27.8-16.3-36.9zM646.8 552.4c0 13.8-11.2 25-25 25h-16.6c-13.8 0-25-11.2-25-25v-16.6c0-8 3.7-15.1 9.6-19.6 4.3-3.3 9.6-5.4 15.4-5.4h16.6c13.8 0 25 11.2 25 25v16.6z"></path>
  </symbol>
</svg>